<?xml version="1.0" encoding="UTF-8"?>
<svg id="Layer_2" data-name="Layer 2" xmlns="http://www.w3.org/2000/svg" viewBox="0 0 349.71 349.71">
  <defs>
    <style>
      .cls-1 {
        fill: #bfd6e1;
      }

      .cls-2 {
        fill: #fff;
      }
    </style>
  </defs>
  <g id="Layer_1-2" data-name="Layer 1">
    <g>
      <circle class="cls-2" cx="174.86" cy="174.86" r="174.86"/>
      <path class="cls-1" d="M173.4,141.37c0,11.36,2.63,22.13,7.3,31.71-27.46-20.78-49.22-38.92-77.64-39.06-33.73.42-54.68,8.43-67.51,42.49-2.91,9.16-4.37,19.15-4.37,29.96,0,24.14,5.91,42.57,17.73,55.31,14.22,16.4,42.48,21.85,66.96,17.98,24.86-3.57,43.84-17.67,49.89-40.93l-18.34-6.34c-1.19,4.92-4.01,8.8-7.12,12.67h0c-7.99,9.99-21.39,14.98-40.2,14.98-14.23-.5-27.17-3.81-36.58-13.11-15.61-20.16-14.31-49.67-2.69-71.64,10.93-18.96,35.71-23.44,55.46-17.52,15.1,4.3,28.03,13.9,40.89,22.47,13.98,9.11,28.65,17.83,43.91,24.52,51.58,21.91,106.19,2.18,116.45-55.36,3.48-18.14-2.57-37.09-13.22-51.42-13.57-18.32-35.26-29.01-58.3-29.35-40.04,0-72.62,32.58-72.62,72.62ZM246.02,194.09c-29.07,0-52.72-23.65-52.72-52.72s23.65-52.72,52.72-52.72,52.72,23.65,52.72,52.72-23.65,52.72-52.72,52.72Z"/>
    </g>
  </g>
</svg>